# xmcd CD database file
#
# Track frame offsets:
#	150
#	19718
#	39585
#
# Disc length: 785 seconds
#
# Revision: 0
# Processed by: cddbd v1.5.1PL2 Copyright (c) Steve Scherf et al.
# Submitted via: CDex 1.51
#
DISCID=1a030f03
DTITLE=空気公団 - やさしい朝
DYEAR=2005
DGENRE=Pop
TTITLE0=暮らし
TTITLE1=やさしい朝
TTITLE2=風に乗った言葉
EXTD=YEAR: 2005
EXTT0=
EXTT1=
EXTT2=
PLAYORDER=
